<?xml version="1.0" encoding="UTF-8" standalone="no"?>
<svg
   xmlns:dc="http://purl.org/dc/elements/1.1/"
   xmlns:cc="http://creativecommons.org/ns#"
   xmlns:rdf="http://www.w3.org/1999/02/22-rdf-syntax-ns#"
   xmlns:svg="http://www.w3.org/2000/svg"
   xmlns="http://www.w3.org/2000/svg"
   xmlns:xlink="http://www.w3.org/1999/xlink"
   xmlns:sodipodi="http://sodipodi.sourceforge.net/DTD/sodipodi-0.dtd"
   xmlns:inkscape="http://www.inkscape.org/namespaces/inkscape"
   inkscape:export-ydpi="15.36"
   inkscape:export-xdpi="15.36"
   inkscape:export-filename="C:\Users\KEITA\Documents\ORIZIN_Yt_Speed_Change\image\icon128.png"
   inkscape:version="1.0 (4035a4fb49, 2020-05-01)"
   sodipodi:docname="icon.svg"
   id="svg36"
   viewBox="0 0 799.99999 799.99999"
   version="1.1"
   height="800"
   width="800">
  <metadata
     id="metadata42">
    <rdf:RDF>
      <cc:Work
         rdf:about="">
        <dc:format>image/svg+xml</dc:format>
        <dc:type
           rdf:resource="http://purl.org/dc/dcmitype/StillImage" />
      </cc:Work>
    </rdf:RDF>
  </metadata>
  <defs
     id="defs40">
    <linearGradient
       id="linearGradient931"
       inkscape:collect="always">
      <stop
         id="stop927"
         offset="0"
         style="stop-color:#ff5ad7;stop-opacity:1" />
      <stop
         id="stop929"
         offset="1"
         style="stop-color:#ffd200;stop-opacity:1" />
    </linearGradient>
    <linearGradient
       gradientUnits="userSpaceOnUse"
       y2="-0.62220055"
       x2="808.59705"
       y1="810.93866"
       x1="-13.755269"
       id="linearGradient933"
       xlink:href="#linearGradient931"
       inkscape:collect="always" />
  </defs>
  <sodipodi:namedview
     inkscape:current-layer="svg36"
     inkscape:window-maximized="1"
     inkscape:window-y="-6"
     inkscape:window-x="-6"
     inkscape:cy="422.16889"
     inkscape:cx="413.02433"
     inkscape:zoom="0.58159533"
     inkscape:guide-bbox="true"
     showguides="true"
     showgrid="false"
     id="namedview38"
     inkscape:window-height="850"
     inkscape:window-width="1368"
     inkscape:pageshadow="2"
     inkscape:pageopacity="0"
     guidetolerance="10"
     gridtolerance="10"
     objecttolerance="10"
     borderopacity="1"
     bordercolor="#666666"
     pagecolor="#ffffff" />
  <path
     d="M 400 0 A 400 400 0 0 0 0 400 A 400 400 0 0 0 400 800 A 400 400 0 0 0 800 400 A 400 400 0 0 0 400 0 z M 400 35.050781 A 364.95 364.95 0 0 1 764.94922 400 A 364.95 364.95 0 0 1 400 764.94922 A 364.95 364.95 0 0 1 35.050781 400 A 364.95 364.95 0 0 1 400 35.050781 z M 400 68.527344 C 393.23557 68.527344 387.78906 73.973852 387.78906 80.738281 L 387.78906 107.3457 C 387.78906 114.11013 393.23557 119.55664 400 119.55664 C 406.76443 119.55664 412.21094 114.11013 412.21094 107.3457 L 412.21094 80.738281 C 412.21094 73.973852 406.76443 68.527344 400 68.527344 z M 558.06055 109.25 C 553.7329 109.11198 549.47966 111.29248 547.13477 115.30859 L 533.71875 138.28711 C 530.30799 144.12873 532.26579 151.57752 538.10742 154.98828 C 543.94904 158.39904 551.39784 156.44123 554.80859 150.59961 L 568.22461 127.62109 C 571.63537 121.77947 569.67951 114.33068 563.83789 110.91992 L 563.83594 110.91992 C 562.01043 109.85406 560.02766 109.31274 558.06055 109.25 z M 234.38086 114.15625 C 232.41322 114.19909 230.42603 114.72219 228.58984 115.76953 C 222.71406 119.12103 220.6817 126.54805 224.0332 132.42383 L 237.2168 155.53711 C 240.5683 161.41289 247.99531 163.44525 253.87109 160.09375 L 253.87305 160.09375 C 259.74883 156.74225 261.78119 149.31328 258.42969 143.4375 L 245.24609 120.32422 C 242.94194 116.28462 238.70966 114.062 234.38086 114.15625 z M 678.78906 227.5918 C 676.82119 227.62198 674.83116 228.13051 672.98828 229.16602 L 649.79102 242.20117 C 643.89379 245.51479 641.81333 252.93089 645.12695 258.82812 C 648.44058 264.72535 655.85668 266.80581 661.75391 263.49219 L 684.95117 250.45703 C 690.8484 247.14341 692.92886 239.72926 689.61523 233.83203 L 689.61328 233.83008 C 687.33516 229.77573 683.11838 227.5254 678.78906 227.5918 z M 120.03125 229.88867 C 116.11952 230.08031 112.37723 232.15497 110.1875 235.77148 L 110.18555 235.77344 C 106.68198 241.55986 108.52022 249.03745 114.30664 252.54102 L 137.06836 266.32227 C 142.85479 269.82584 150.33433 267.98955 153.83789 262.20312 L 153.83789 262.20117 C 157.34146 256.41474 155.50323 248.93716 149.7168 245.43359 L 126.95508 231.65039 C 124.78517 230.33655 122.37829 229.77369 120.03125 229.88867 z M 190.64062 274.72266 C 185.96792 274.59553 181.38649 276.97205 178.87695 281.32227 L 178.87305 281.33203 C 175.22282 287.65962 177.37619 295.69682 183.70117 299.35156 L 389.20508 418.09766 C 395.53006 421.75239 403.56071 419.59908 407.21094 413.27148 L 407.2168 413.26367 C 410.86703 406.93608 408.71365 398.89888 402.38867 395.24414 L 196.88281 276.49805 C 194.90625 275.35594 192.76458 274.78044 190.64062 274.72266 z M 77.634766 388.53711 C 70.873382 388.3353 65.268216 393.61752 65.066406 400.37891 C 64.864596 407.14029 70.144866 412.74546 76.90625 412.94727 L 103.50391 413.74219 C 110.26529 413.944 115.87046 408.66372 116.07227 401.90234 L 116.07227 401.90039 C 116.27408 395.139 110.9938 389.53384 104.23242 389.33203 L 77.634766 388.53711 z M 697.19336 389.98828 C 690.42988 389.87634 684.89515 395.23066 684.7832 401.99414 C 684.67126 408.75762 690.02558 414.29431 696.78906 414.40625 L 723.39453 414.8457 C 730.158 414.95765 735.69274 409.60333 735.80469 402.83984 L 735.80469 402.83789 C 735.91663 396.07441 730.5623 390.53968 723.79883 390.42773 L 697.19336 389.98828 z "
     style="isolation:auto;mix-blend-mode:normal;fill:url(#linearGradient933);shape-rendering:auto;fill-opacity:1"
     id="path2" />
</svg>
